<?xml version="1.0" standalone="no"?>
<!DOCTYPE svg PUBLIC "-//W3C//DTD SVG 20010904//EN"
 "http://www.w3.org/TR/2001/REC-SVG-20010904/DTD/svg10.dtd">
<svg version="1.0" xmlns="http://www.w3.org/2000/svg"
 width="637.000000pt" height="392.000000pt" viewBox="0 0 637.000000 392.000000"
 preserveAspectRatio="xMidYMid meet">

<g transform="translate(0.000000,392.000000) scale(0.100000,-0.100000)"
fill="#000000" stroke="none">
<path d="M3315 3378 c-27 -15 -47 -37 -60 -65 -14 -32 -28 -46 -52 -54 -18 -6
-42 -22 -53 -37 -35 -44 -97 -61 -167 -47 -21 5 -43 2 -65 -10 -18 -9 -57 -26
-86 -37 -45 -17 -58 -18 -82 -8 -17 7 -45 10 -67 6 -105 -18 -180 -18 -214 0
-22 12 -64 19 -124 22 -55 3 -98 10 -112 19 -16 10 -34 13 -55 8 -18 -3 -51
-7 -72 -8 -36 -2 -40 1 -50 32 -21 59 -46 71 -151 71 -60 0 -104 -5 -122 -14
-42 -21 -125 -46 -152 -46 -22 0 -121 -66 -121 -80 0 -3 -19 -14 -41 -24 l-42
-19 -54 27 c-73 36 -116 34 -155 -5 -29 -28 -30 -34 -25 -85 l6 -55 -77 -60
c-42 -34 -86 -65 -98 -69 -12 -5 -70 -44 -130 -87 -60 -43 -138 -99 -174 -124
-36 -25 -112 -80 -170 -121 -58 -42 -119 -79 -136 -82 -68 -15 -91 -70 -88
-211 2 -56 -3 -110 -12 -142 -17 -58 -13 -83 22 -129 l24 -30 -38 -17 c-83
-38 -125 -101 -126 -191 -1 -77 25 -120 96 -160 27 -15 55 -38 63 -50 18 -27
56 -46 92 -46 15 0 34 -7 44 -16 10 -9 39 -20 65 -25 30 -6 63 -22 89 -44 65
-52 89 -59 146 -39 46 17 49 17 69 -1 11 -10 20 -24 20 -31 0 -27 50 -72 94
-83 l44 -11 4 -74 c3 -62 7 -79 27 -100 31 -33 80 -42 117 -23 16 8 41 13 55
10 29 -5 99 20 99 36 0 6 20 11 44 11 29 0 52 7 70 21 l26 20 0 -36 c0 -45 20
-85 60 -119 35 -29 82 -33 141 -12 l35 12 -13 -50 c-25 -92 3 -302 45 -350 35
-38 92 -59 143 -52 l48 7 11 -41 c6 -22 20 -46 30 -53 16 -9 20 -23 20 -62 0
-70 16 -95 82 -130 31 -16 77 -43 102 -58 26 -16 69 -32 98 -36 29 -4 63 -13
75 -19 12 -7 45 -12 73 -12 45 0 55 4 96 42 59 54 104 132 104 179 0 34 2 37
38 43 53 8 88 38 121 105 27 53 28 62 27 187 l-1 132 -43 51 c-37 44 -43 56
-37 81 7 32 30 50 61 48 10 -1 45 4 77 11 81 17 166 21 205 9 45 -14 119 12
163 58 19 20 48 41 64 48 40 17 93 71 101 102 3 13 11 24 16 24 24 0 77 -42
88 -70 7 -17 23 -38 35 -48 12 -10 27 -28 34 -41 15 -27 104 -71 144 -71 52 0
93 25 113 70 14 30 26 43 46 47 15 3 56 32 90 64 35 33 65 59 68 59 13 0 40
60 40 87 0 33 15 49 76 82 62 34 94 91 94 166 0 55 3 63 24 73 75 34 134 128
123 195 -7 42 -2 49 50 76 23 11 47 30 53 41 11 21 64 39 91 32 11 -2 19 -19
23 -45 20 -125 43 -151 136 -153 38 -1 70 -9 104 -28 58 -31 98 -33 147 -8 24
12 44 16 63 11 42 -12 113 14 153 56 21 22 41 34 51 31 10 -3 47 -8 83 -11 56
-6 72 -4 107 14 22 11 47 30 54 40 8 11 35 25 62 31 27 6 58 17 70 25 11 8 28
15 38 15 10 0 36 24 59 53 32 40 53 56 93 70 81 29 143 38 260 38 149 0 186
21 186 104 0 41 -16 69 -82 144 -26 30 -50 67 -54 84 -4 18 -33 57 -73 98 -64
65 -72 70 -146 89 -43 11 -87 20 -97 20 -10 0 -36 11 -58 25 -22 14 -50 25
-63 25 -24 0 -102 53 -146 99 -13 14 -49 44 -79 68 -30 24 -66 59 -80 78 -14
19 -30 35 -35 35 -5 0 -43 34 -84 75 -41 41 -96 86 -123 100 -46 23 -53 24
-158 16 -63 -4 -117 -13 -126 -20 -18 -15 -61 -3 -132 36 -25 14 -57 26 -72
28 -47 3 -66 14 -84 44 -9 17 -36 40 -59 52 -39 19 -52 21 -143 14 -94 -6
-106 -9 -168 -46 l-66 -40 -129 3 c-125 4 -130 5 -233 47 -58 24 -123 50 -145
58 -22 8 -54 21 -72 28 -17 8 -69 17 -115 20 -75 5 -87 4 -123 -17z m262 -109
c41 -16 82 -29 91 -29 10 0 27 -7 38 -15 12 -8 48 -24 80 -36 33 -12 65 -27
73 -33 17 -13 178 -14 266 -2 43 7 76 20 116 46 52 34 62 37 135 39 84 2 106
-6 127 -48 16 -32 94 -72 127 -66 25 6 70 -24 70 -45 0 -6 17 -10 39 -10 22 0
44 -6 51 -15 17 -20 38 -19 81 4 27 15 61 21 130 23 90 3 96 2 131 -25 20 -16
58 -53 83 -83 26 -30 51 -54 57 -54 6 0 34 -24 63 -52 56 -58 184 -173 227
-204 37 -26 37 -48 1 -39 -54 13 -216 101 -255 137 -34 32 -42 36 -64 28 -14
-6 -30 -8 -35 -4 -5 3 -9 -17 -9 -45 0 -50 -1 -51 -29 -51 -17 0 -33 5 -36 10
-3 6 -10 10 -16 10 -17 0 -9 -29 16 -54 18 -18 25 -36 25 -64 0 -42 16 -57 41
-41 8 5 31 9 53 9 l38 0 -6 35 c-5 27 -4 35 8 35 8 0 18 -4 21 -10 3 -5 15
-10 26 -10 10 0 28 -9 39 -20 15 -15 33 -20 75 -20 47 0 57 -3 71 -25 17 -25
12 -45 -11 -45 -7 0 -23 -12 -35 -27 -20 -26 -20 -28 -4 -40 10 -7 30 -13 44
-13 14 0 31 -5 36 -10 16 -16 69 -1 79 23 10 23 23 25 95 16 40 -5 49 16 15
35 -11 6 -26 19 -33 28 -7 10 -29 25 -48 34 -40 19 -54 42 -33 55 24 15 60 10
92 -13 17 -12 53 -25 81 -29 92 -12 136 -28 145 -52 5 -13 25 -31 44 -42 26
-13 38 -29 47 -59 7 -24 34 -63 70 -100 32 -34 61 -71 65 -84 6 -22 5 -23 -82
-22 -111 0 -153 -4 -176 -14 -10 -5 -23 -4 -32 4 -11 10 -20 8 -40 -8 -32 -25
-98 -48 -102 -36 -2 5 -7 15 -12 23 -14 22 -41 -4 -41 -38 0 -37 -46 -101 -72
-101 -12 0 -29 -7 -39 -16 -21 -18 -126 -47 -145 -40 -11 4 -13 -1 -8 -18 4
-18 0 -27 -14 -35 -30 -16 -125 -14 -148 4 -28 21 -47 18 -75 -11 -17 -18 -31
-24 -51 -22 -25 4 -27 2 -21 -20 10 -40 -51 -58 -92 -28 -17 12 -23 11 -51
-10 -40 -31 -70 -30 -134 3 -37 19 -66 27 -101 26 -48 -1 -49 0 -49 29 0 16
-5 38 -10 49 -8 14 -6 28 10 59 11 22 18 45 15 50 -3 6 -31 10 -61 10 -31 0
-64 5 -74 10 -13 7 -21 7 -25 0 -3 -5 -15 -10 -26 -10 -28 0 -98 -41 -104 -62
-3 -9 -23 -23 -45 -32 -21 -8 -44 -25 -50 -36 -6 -11 -17 -20 -24 -20 -18 0
-30 -50 -17 -63 6 -6 11 -26 11 -45 0 -59 -100 -132 -125 -92 -15 24 -26 7
-25 -37 0 -27 0 -57 0 -68 -1 -11 2 -34 6 -51 8 -42 -14 -74 -68 -102 -75 -38
-98 -66 -98 -118 0 -26 -65 -104 -87 -104 -5 0 -19 -11 -31 -25 -12 -14 -30
-25 -39 -25 -23 0 -83 -59 -83 -82 0 -38 -65 -35 -101 5 -11 12 -30 33 -43 47
-12 14 -30 37 -39 51 -14 24 -74 68 -154 114 -31 18 -33 18 -52 1 -12 -11 -23
-34 -27 -52 -7 -36 -66 -104 -90 -104 -8 0 -37 -21 -64 -46 -32 -30 -57 -46
-72 -45 -120 8 -210 4 -260 -10 -32 -10 -66 -15 -76 -12 -27 7 -105 -38 -120
-70 -8 -15 -16 -52 -19 -81 -6 -53 -5 -55 41 -102 49 -52 57 -83 35 -141 -7
-20 -7 -39 1 -69 10 -36 9 -46 -9 -82 -12 -23 -32 -49 -45 -57 -22 -14 -27
-14 -61 2 -37 18 -37 18 -57 -7 -17 -21 -19 -34 -15 -86 6 -66 -4 -94 -58
-146 -31 -31 -66 -35 -105 -13 -14 8 -44 14 -68 15 -36 0 -54 8 -101 44 -31
24 -68 46 -81 48 -23 3 -25 8 -30 71 -4 61 -8 72 -34 92 -25 20 -28 27 -22 58
6 33 5 36 -28 47 -19 6 -46 22 -61 35 -34 32 -53 32 -65 -1 -7 -18 -15 -24
-26 -20 -9 3 -20 6 -24 6 -11 0 -30 65 -30 104 0 16 -8 34 -17 41 -16 12 -16
18 -5 59 6 26 12 56 12 69 0 12 14 45 30 72 33 55 36 65 18 65 -7 0 -24 12
-39 26 -16 15 -43 28 -68 31 -36 5 -45 2 -66 -21 -28 -30 -51 -33 -77 -9 -21
19 -23 36 -6 62 15 25 6 44 -36 76 -46 35 -113 38 -135 6 -10 -16 -24 -21 -62
-21 -45 0 -79 -17 -79 -41 0 -5 -17 -7 -39 -3 -28 4 -46 1 -65 -11 -24 -16
-26 -16 -32 0 -4 9 -4 52 -1 94 l6 77 -71 15 -72 14 -30 60 c-17 33 -32 62
-33 64 -6 10 -136 2 -146 -8 -17 -17 -30 -13 -67 21 -35 33 -81 55 -132 65
-15 3 -33 11 -39 19 -6 8 -30 14 -53 14 -35 0 -46 5 -64 29 -12 16 -44 42 -71
57 -65 35 -81 74 -54 131 21 47 50 72 81 73 28 0 77 49 86 86 5 20 0 34 -29
65 -39 44 -41 55 -20 104 10 25 13 62 10 127 -4 102 5 138 34 138 17 0 71 36
276 183 192 138 333 235 350 241 11 3 37 21 58 40 22 18 66 53 98 77 l60 44
-5 63 c-3 38 -1 62 5 62 18 0 104 -48 123 -69 26 -28 42 -26 63 7 23 35 42 50
75 57 15 4 30 15 33 25 7 22 40 45 80 54 57 13 140 38 172 52 41 18 117 18
132 0 18 -21 25 -81 12 -104 -10 -19 -8 -22 14 -28 16 -4 34 0 50 10 13 9 43
16 65 16 23 0 50 5 61 11 16 8 26 7 44 -5 16 -11 48 -16 96 -16 44 0 98 -8
140 -21 56 -17 83 -20 137 -14 85 8 128 8 175 0 26 -5 48 -2 71 9 19 9 39 16
45 16 6 0 28 9 49 20 36 19 41 19 76 5 36 -15 40 -15 77 4 22 12 53 21 69 21
24 0 35 8 54 39 27 43 59 53 146 50 72 -3 121 22 73 37 -41 12 -83 38 -83 51
0 40 121 36 237 -8z"/>
</g>
</svg>
